<?xml version="1.0" encoding="UTF-8"?>
<svg version="1.1" xmlns="http://www.w3.org/2000/svg" width="900" height="490">
<path d="M0 0 C0.99290039 0.01885254 0.99290039 0.01885254 2.00585938 0.03808594 C53.67120054 1.26821311 100.97216657 24.91281265 137 61 C137.66 61.61359375 138.32 62.2271875 139 62.859375 C174.52999617 96.4463245 192.53980714 147.97297292 194.12890625 195.88671875 C195.12639295 247.0664067 177.31594826 298.48079638 142 336 C141.35192383 336.6904541 140.70384766 337.3809082 140.03613281 338.09228516 C130.12225676 348.54793992 119.90243529 357.87234597 108 366 C107.42362793 366.39977051 106.84725586 366.79954102 106.25341797 367.21142578 C62.18174167 397.57022095 8.52557963 407.98170044 -44 399 C-71.99985362 393.83793952 -100.41775166 382.54518995 -123 365 C-123.98484375 364.27941406 -124.9696875 363.55882812 -125.984375 362.81640625 C-132.69585971 357.90203229 -138.97982669 352.73917512 -145 347 C-145.85730713 346.18354004 -145.85730713 346.18354004 -146.73193359 345.35058594 C-186.01483883 307.69551024 -205.98955145 257.79127642 -208.1875 203.9140625 C-209.12515788 150.81918509 -188.36311062 99.77478779 -151.80078125 61.58203125 C-139.02386789 48.44327439 -125.67674598 37.45908921 -110 28 C-109.38962891 27.62633301 -108.77925781 27.25266602 -108.15039062 26.86767578 C-75.56211528 7.06987638 -37.82598366 -0.85226329 0 0 Z M-127 119 C-127.94011278 136.06443898 -128.1581981 153.10219238 -128.13037109 170.18774414 C-128.12467999 173.724561 -128.12805364 177.26130242 -128.13382339 180.79811668 C-128.15681487 197.55392171 -127.87388154 214.2638747 -127 231 C-123.37 231 -119.74 231 -116 231 C-116 198.99 -116 166.98 -116 134 C-113.31755791 135.34122105 -113.05128478 136.72739404 -111.8125 139.4375 C-109.55260672 144.10265981 -106.88252569 148.15628103 -103.85546875 152.3515625 C-101.95049805 155.07065753 -100.21842645 157.84706409 -98.5 160.6875 C-94.750218 166.8550951 -90.83073578 172.90019449 -86.875 178.9375 C-82.39231346 185.77928915 -77.93673316 192.63497179 -73.56542969 199.54858398 C-72.40319873 201.38112112 -71.23334073 203.20884474 -70.05566406 205.03149414 C-67.22839989 209.41311575 -64.52525704 213.80472347 -62.01953125 218.37890625 C-61.53057373 219.22219482 -61.04161621 220.0654834 -60.5378418 220.93432617 C-59.63010428 222.50243607 -58.766248 224.09724125 -57.96020508 225.7199707 C-56.59138485 228.2646504 -56.59138485 228.2646504 -53 231 C-47.72 231 -42.44 231 -37 231 C-37 194.04 -37 157.08 -37 119 C-40.96 119 -44.92 119 -49 119 C-49.02315598 130.92622338 -49.04093175 142.85244143 -49.05181217 154.77868271 C-49.05703385 160.3163304 -49.06411858 165.85396272 -49.07543945 171.39160156 C-49.08629365 176.73431805 -49.09228223 182.07701974 -49.09487724 187.4197464 C-49.09672691 189.45951826 -49.10033876 191.4992893 -49.10573006 193.53905487 C-49.11297404 196.39291645 -49.11398951 199.24671666 -49.11352539 202.10058594 C-49.1189183 203.3694162 -49.1189183 203.3694162 -49.12442017 204.66387939 C-49.11804391 208.27998759 -48.97827305 211.52052469 -48 215 C-48.99 215 -49.98 215 -51 215 C-51.35771484 213.98679688 -51.35771484 213.98679688 -51.72265625 212.953125 C-53.29186503 209.32522946 -55.31992078 206.07359879 -57.4375 202.75 C-57.87779541 202.05181152 -58.31809082 201.35362305 -58.77172852 200.63427734 C-62.40184109 194.89497399 -66.10500936 189.20341731 -69.81323242 183.5144043 C-73.2259424 178.25617386 -76.50587155 172.92605131 -79.75 167.5625 C-83.03165092 162.13885814 -86.41848222 156.88517333 -90.12890625 151.7421875 C-92.19044289 148.72089581 -94.09862818 145.6303274 -95.99487305 142.50341797 C-96.95381893 140.92243121 -97.92010568 139.34587298 -98.89379883 137.77392578 C-101.04392038 134.29493762 -103.11870182 130.84442858 -104.921875 127.171875 C-106.72374571 123.80731995 -108.05804259 121.44149725 -111 119 C-116.31807104 117.63120802 -121.62053899 118.41669862 -127 119 Z M-6 119 C-6 155.96 -6 192.92 -6 231 C13.47 231 32.94 231 53 231 C53 227.7 53 224.4 53 221 C37.82 220.67 22.64 220.34 7 220 C7 206.8 7 193.6 7 180 C20.2 179.67 33.4 179.34 47 179 C47 175.7 47 172.4 47 169 C26.705 168.505 26.705 168.505 6 168 C6 155.46 6 142.92 6 130 C20.52 129.67 35.04 129.34 50 129 C51.4472136 125.40371521 51.4472136 125.40371521 50 119 C31.52 119 13.04 119 -6 119 Z M64 120 C63.83946185 121.87321948 63.83946185 121.87321948 63.875 124 C63.87242187 124.721875 63.86984375 125.44375 63.8671875 126.1875 C63.80304724 128.02089415 63.80304724 128.02089415 65 129 C67.28988781 129.15888092 69.58443441 129.25138073 71.87890625 129.31640625 C72.5655687 129.33718735 73.25223114 129.35796844 73.95970154 129.37937927 C76.16052935 129.44494143 78.36147975 129.50379015 80.5625 129.5625 C82.05144514 129.60567892 83.54037773 129.649293 85.02929688 129.69335938 C88.68604164 129.80145055 92.34299648 129.90106893 96 130 C96.79362705 141.17805131 97.13178525 152.2856747 97.07516479 163.49082375 C97.06212966 166.09347468 97.05582017 168.69607336 97.05102539 171.29875183 C97.03975215 176.80335866 97.02044658 182.30792064 97 187.8125 C96.97632452 194.2442918 96.95602081 200.67606026 96.94406128 207.10788536 C96.93760066 209.66715655 96.92510762 212.22635233 96.91235352 214.78559875 C96.90872278 216.34770646 96.90537083 217.90981484 96.90234375 219.47192383 C96.89459427 220.53237915 96.89459427 220.53237915 96.88668823 221.61425781 C96.88632311 225.00190566 97.16897201 227.67588804 98 231 C101.63 231 105.26 231 109 231 C109.33 197.67 109.66 164.34 110 130 C120.89 129.67 131.78 129.34 143 129 C142.67 125.7 142.34 122.4 142 119 C131.97772237 118.9768759 121.95545103 118.95908457 111.9331522 118.94818783 C107.27988814 118.94295915 102.62664226 118.93586177 97.97338867 118.92456055 C93.48655454 118.91373114 88.99973796 118.90772305 84.51289177 118.90512276 C82.79719707 118.9032686 81.08150338 118.89964818 79.36581612 118.89426994 C76.97115087 118.88705879 74.57655904 118.88600909 72.18188477 118.88647461 C71.46547318 118.88287933 70.74906158 118.87928406 70.01094055 118.87557983 C66.72381792 118.59765159 66.72381792 118.59765159 64 120 Z M-167 219 C-168.91399936 221.52299916 -169.00400861 222.80758679 -168.9375 226 C-167.72940536 229.86590284 -166.54971764 231.07080563 -163 233 C-159.4758443 232.93923869 -157.08383034 232.72255356 -154.125 230.75 C-152.61536655 228.4016813 -152.13336945 226.80075852 -152 224 C-153.7795758 219.84765647 -155.97087424 217.96290742 -160 216 C-162.98687233 216 -164.58576796 217.31003757 -167 219 Z M-73 265 C-73.55816406 265.51949219 -74.11632812 266.03898437 -74.69140625 266.57421875 C-80.35085623 272.42458994 -82.1194112 278.93397547 -82.4375 286.9375 C-82.20697729 294.47751379 -80.41415682 301.13546669 -74.8125 306.4375 C-67.49646849 311.88198856 -60.83787679 312.31880616 -51.91796875 311.51953125 C-49.21760053 311.0387428 -47.34642068 310.38058166 -45 309 C-45 308.01 -45 307.02 -45 306 C-46.11375 306.2475 -46.11375 306.2475 -47.25 306.5 C-54.63785538 307.48504738 -62.65323577 308.49156333 -69.30859375 304.50390625 C-73.76849032 300.5384093 -75.6455092 295.59123361 -76.44140625 289.7734375 C-76.7184787 282.14053847 -75.81998785 275.2595481 -70.57421875 269.41015625 C-65.97656044 265.31146861 -61.58101137 263.71855179 -55.5 263.8125 C-54.12328125 263.82216797 -54.12328125 263.82216797 -52.71875 263.83203125 C-50.06134313 263.99621012 -47.59373754 264.41265001 -45 265 C-45 263.68 -45 262.36 -45 261 C-52.88122799 257.059386 -66.85323486 258.82195362 -73 265 Z M-32.4375 280.5625 C-36.19908335 286.43057003 -35.53925865 293.27065962 -35 300 C-33.78883666 304.13871816 -31.54246615 306.52061131 -28.3125 309.375 C-22.78137913 312.08838005 -17.6694958 312.8295505 -11.75 310.875 C-7.36223795 308.96081696 -4.46106551 306.11854499 -1.75 302.1875 C0.9194029 294.40174153 -0.13220143 287.66949642 -3.125 280.1875 C-6.38204515 276.387614 -10.32064114 274.46211938 -15.2421875 273.61328125 C-22.23546771 273.26240733 -27.62906009 275.50747343 -32.4375 280.5625 Z M40.30078125 277.484375 C35.5209181 282.71560537 33.52967137 287.71597672 33.75 294.91796875 C34.51318767 301.27389106 36.93104808 305.9919915 42 310 C47.23173222 312.67670021 52.3890875 312.17633107 58 311 C61.015076 309.61569518 61.015076 309.61569518 63 308 C62.67 307.01 62.34 306.02 62 305 C61.45472656 305.23976563 60.90945313 305.47953125 60.34765625 305.7265625 C54.41959762 308.05725222 49.96352889 308.49923825 44 306 C40.44227475 302.99816932 40.57920122 299.44226651 40 295 C40.72179443 294.97494385 41.44358887 294.9498877 42.18725586 294.92407227 C45.437535 294.80848698 48.68749688 294.68559226 51.9375 294.5625 C53.07380859 294.52318359 54.21011719 294.48386719 55.38085938 294.44335938 C56.46044922 294.40146484 57.54003906 294.35957031 58.65234375 294.31640625 C59.65257568 294.27974854 60.65280762 294.24309082 61.68334961 294.20532227 C63.96069188 294.25328159 63.96069188 294.25328159 65 293 C64.94624888 286.61705463 63.77550423 280.98109713 59.3125 276.1875 C53.31910604 273.10981121 45.57136949 272.88018297 40.30078125 277.484375 Z " fill="#6C419B" transform="translate(457,39)"/>
<path d="M0 0 C0.99290039 0.01885254 0.99290039 0.01885254 2.00585938 0.03808594 C53.67120054 1.26821311 100.97216657 24.91281265 137 61 C137.66 61.61359375 138.32 62.2271875 139 62.859375 C174.52999617 96.4463245 192.53980714 147.97297292 194.12890625 195.88671875 C195.15237792 248.39966007 176.34912464 300.07206586 139.90722656 338.18896484 C137.55712947 340.62018557 135.19003642 343.03311379 132.8125 345.4375 C132.06379639 346.19579102 131.31509277 346.95408203 130.54370117 347.73535156 C125.97749803 352.27383187 121.2695791 356.29905641 116 360 C115.34 359.67 114.68 359.34 114 359 C114.92941406 358.21496094 115.85882812 357.42992187 116.81640625 356.62109375 C123.10696639 351.28354582 129.29695488 345.97461869 135 340 C133.51169251 336.537718 131.54817008 334.30324599 128.88717651 331.65339661 C128.02618347 330.7910994 127.16519043 329.92880219 126.27810669 329.04037476 C125.32204891 328.09298933 124.3658996 327.14569627 123.40966797 326.19848633 C122.40402289 325.19504302 121.3988256 324.19115077 120.39404297 323.18684387 C118.23178273 321.02751471 116.06640634 318.87137748 113.89855576 316.7176609 C110.47404637 313.31541248 107.05663459 309.90609458 103.64016724 306.49577332 C98.23954099 301.1065238 92.83426053 295.72197023 87.42693722 290.339441 C77.73249733 280.68936871 68.04368462 271.03365421 58.36002076 261.37276858 C54.95892649 257.98010576 51.55504422 254.59027174 48.14892936 251.20264971 C46.03657292 249.10089673 43.92621397 246.99714667 41.81636047 244.89288139 C40.83358205 243.91358858 39.84993244 242.93516922 38.86537552 241.95766449 C37.52760485 240.62927015 36.19312857 239.29756055 34.8588562 237.96565247 C34.10927076 237.21958646 33.35968533 236.47352045 32.58738518 235.70484638 C31 234 31 234 31 233 C31.59538574 232.97494385 32.19077148 232.9498877 32.80419922 232.92407227 C35.49469136 232.80822506 38.1848234 232.68544804 40.875 232.5625 C41.81214844 232.52318359 42.74929688 232.48386719 43.71484375 232.44335938 C45.05869141 232.38051758 45.05869141 232.38051758 46.4296875 232.31640625 C47.25710449 232.27974854 48.08452148 232.24309082 48.93701172 232.20532227 C51.06179429 232.11761673 51.06179429 232.11761673 53 231 C53 227.7 53 224.4 53 221 C51.61176025 221.00523682 50.22352051 221.01047363 48.79321289 221.01586914 C43.66268555 221.03391346 38.53216103 221.04542992 33.40161133 221.05493164 C31.17732268 221.05997317 28.95303737 221.06680623 26.72875977 221.07543945 C23.53921691 221.08751298 20.34971771 221.09322996 17.16015625 221.09765625 C15.65860741 221.10539818 15.65860741 221.10539818 14.12672424 221.11329651 C13.20584518 221.11337204 12.28496613 221.11344757 11.33618164 221.11352539 C10.52121719 221.115746 9.70625275 221.11796661 8.86659241 221.12025452 C7 221 7 221 6 220 C5.89889647 217.0546443 5.86030721 214.1332244 5.8671875 211.1875 C5.86623077 210.30344482 5.86527405 209.41938965 5.86428833 208.50854492 C5.86360649 206.63557871 5.86546107 204.76261014 5.86962891 202.88964844 C5.87497711 200.01231612 5.86968407 197.13513992 5.86328125 194.2578125 C5.86394203 192.44270799 5.86522319 190.62760357 5.8671875 188.8125 C5.86516327 187.94584717 5.86313904 187.07919434 5.86105347 186.1862793 C5.88504991 180.11495009 5.88504991 180.11495009 7 179 C9.95705321 178.91131701 12.89065056 178.88479704 15.84765625 178.90234375 C17.17729652 178.90446617 17.17729652 178.90446617 18.53379822 178.90663147 C21.37673254 178.91224785 24.21958931 178.92480309 27.0625 178.9375 C28.98502491 178.94251289 30.90755104 178.94707616 32.83007812 178.95117188 C37.55341549 178.96222259 42.27669458 178.97949817 47 179 C47 175.7 47 172.4 47 169 C45.82904785 169.00523682 44.6580957 169.01047363 43.45166016 169.01586914 C39.11686972 169.03393758 34.78208263 169.04543879 30.44726562 169.05493164 C28.56933025 169.05996763 26.6913988 169.06679671 24.81347656 169.07543945 C22.11782868 169.08753713 19.42223253 169.09323557 16.7265625 169.09765625 C15.88380768 169.10281754 15.04105286 169.10797882 14.17276001 169.11329651 C8.22774341 169.11387171 8.22774341 169.11387171 6 168 C6 155.46 6 142.92 6 130 C8.26038854 128.86980573 9.57118826 128.84731043 12.08251953 128.79467773 C12.92324005 128.77473251 13.76396057 128.75478729 14.63015747 128.73423767 C15.99272171 128.70916893 15.99272171 128.70916893 17.3828125 128.68359375 C18.31221649 128.66281265 19.24162048 128.64203156 20.19918823 128.62062073 C23.1743821 128.55512354 26.14966577 128.49623948 29.125 128.4375 C31.13933228 128.39431494 33.15365541 128.35070066 35.16796875 128.30664062 C40.11188663 128.19944197 45.05589503 128.09817499 50 128 C50 125.03 50 122.06 50 119 C31.52 119 13.04 119 -6 119 C-5.98839844 123.64835937 -5.97679687 128.29671875 -5.96484375 133.0859375 C-5.95972828 136.0481785 -5.95491387 139.01041397 -5.95117188 141.97265625 C-5.94521703 146.66423691 -5.9382074 151.35579787 -5.92456055 156.04736328 C-5.91361618 159.83398274 -5.90769893 163.62058105 -5.90512276 167.40721512 C-5.90328917 168.8447363 -5.89970908 170.28225646 -5.89426994 171.71976852 C-5.8659106 179.53263596 -5.98478063 187.24099299 -7 195 C-12.96282082 190.08944167 -18.42640855 184.72722904 -23.87255859 179.2578125 C-25.3891595 177.73578988 -26.91111323 176.21926388 -28.43359375 174.703125 C-29.40136298 173.73469599 -30.36882253 172.76595738 -31.3359375 171.796875 C-32.20782715 170.92385742 -33.0797168 170.05083984 -33.97802734 169.15136719 C-36.81838298 166.12924525 -37.12455041 164.58544851 -37.11352539 160.55029297 C-37.11341209 159.16908768 -37.11341209 159.16908768 -37.11329651 157.75997925 C-37.10813522 156.76410797 -37.10297394 155.76823669 -37.09765625 154.7421875 C-37.0962413 153.72399933 -37.09482635 152.70581116 -37.09336853 151.6567688 C-37.087759 148.39614965 -37.07520488 145.13559849 -37.0625 141.875 C-37.05748623 139.66796974 -37.05292311 137.46093841 -37.04882812 135.25390625 C-37.03778647 129.83591119 -37.02051543 124.41796714 -37 119 C-40.96 119 -44.92 119 -49 119 C-49 148.37 -49 177.74 -49 208 C-49.66 208 -50.32 208 -51 208 C-50.91065752 207.39568114 -50.82131504 206.79136229 -50.72926521 206.16873074 C-47.71568838 184.59241613 -44.81063089 159.54883033 -58.1278038 140.87996864 C-68.21267226 127.94543618 -80.63857 116.87439805 -92.87755609 106.03241193 C-98.51950945 101.02292159 -103.98939573 95.83917921 -109.45634627 90.64030564 C-117.94826685 82.57192704 -126.52075684 74.60143547 -135.22998047 66.76782227 C-136.07789154 66.00429443 -136.92580261 65.2407666 -137.79940796 64.45410156 C-140.79928351 61.77207701 -143.64705664 59.23529557 -147 57 C-136.15075309 45.37580688 -123.56632913 36.18569859 -110 28 C-109.38962891 27.62633301 -108.77925781 27.25266602 -108.15039062 26.86767578 C-75.56211528 7.06987638 -37.82598366 -0.85226329 0 0 Z M64 120 C63.83946185 121.87321948 63.83946185 121.87321948 63.875 124 C63.87242187 124.721875 63.86984375 125.44375 63.8671875 126.1875 C63.80304724 128.02089415 63.80304724 128.02089415 65 129 C67.28988781 129.15888092 69.58443441 129.25138073 71.87890625 129.31640625 C72.5655687 129.33718735 73.25223114 129.35796844 73.95970154 129.37937927 C76.16052935 129.44494143 78.36147975 129.50379015 80.5625 129.5625 C82.05144514 129.60567892 83.54037773 129.649293 85.02929688 129.69335938 C88.68604164 129.80145055 92.34299648 129.90106893 96 130 C96.79362705 141.17805131 97.13178525 152.2856747 97.07516479 163.49082375 C97.06212966 166.09347468 97.05582017 168.69607336 97.05102539 171.29875183 C97.03975215 176.80335866 97.02044658 182.30792064 97 187.8125 C96.97632452 194.2442918 96.95602081 200.67606026 96.94406128 207.10788536 C96.93760066 209.66715655 96.92510762 212.22635233 96.91235352 214.78559875 C96.90872278 216.34770646 96.90537083 217.90981484 96.90234375 219.47192383 C96.89459427 220.53237915 96.89459427 220.53237915 96.88668823 221.61425781 C96.88632311 225.00190566 97.16897201 227.67588804 98 231 C101.63 231 105.26 231 109 231 C109.33 197.67 109.66 164.34 110 130 C120.89 129.67 131.78 129.34 143 129 C142.67 125.7 142.34 122.4 142 119 C131.97772237 118.9768759 121.95545103 118.95908457 111.9331522 118.94818783 C107.27988814 118.94295915 102.62664226 118.93586177 97.97338867 118.92456055 C93.48655454 118.91373114 88.99973796 118.90772305 84.51289177 118.90512276 C82.79719707 118.9032686 81.08150338 118.89964818 79.36581612 118.89426994 C76.97115087 118.88705879 74.57655904 118.88600909 72.18188477 118.88647461 C71.46547318 118.88287933 70.74906158 118.87928406 70.01094055 118.87557983 C66.72381792 118.59765159 66.72381792 118.59765159 64 120 Z " fill="#5C2D91" transform="translate(457,39)"/>
<path d="M0 0 C3.78686754 1.36971805 4.72859637 2.55078021 6.8125 6 C8.81714148 11.43787803 9.08187815 17.62600711 7.30859375 23.15625 C5.78835805 26.15855649 3.9954631 28.0033763 1.3125 30 C-3.07371762 31.32414117 -6.60641102 31.32942545 -11 30 C-14.68778594 27.1753129 -16.89504145 24.52028497 -18 20 C-18.564226 13.99502332 -18.53588974 9.12094376 -15 4 C-10.74355913 -0.90135616 -6.07876572 -0.80115528 0 0 Z " fill="#6B419B" transform="translate(444,317)"/>
<path d="M0 0 C0 1.98 0 3.96 0 6 C-1.051875 5.896875 -2.10375 5.79375 -3.1875 5.6875 C-7.11609522 5.65064764 -7.11609522 5.65064764 -9.875 8.3125 C-12.85541122 12.08184361 -13.14349686 14.87441529 -13.31640625 19.54296875 C-13.35830078 20.61611328 -13.40019531 21.68925781 -13.44335938 22.79492188 C-13.50233398 24.47424805 -13.50233398 24.47424805 -13.5625 26.1875 C-13.60568359 27.31865234 -13.64886719 28.44980469 -13.69335938 29.61523438 C-13.79949099 32.41003354 -13.90154385 35.20492162 -14 38 C-15.98 38 -17.96 38 -20 38 C-20 25.79 -20 13.58 -20 1 C-18.02 1 -16.04 1 -14 1 C-13.67 2.32 -13.34 3.64 -13 5 C-12.34 4.175 -11.68 3.35 -11 2.5 C-6.97633382 -0.85305515 -5.09299533 -0.43160977 0 0 Z " fill="#EDECEF" transform="translate(487,313)"/>
<path d="M0 0 C1.15790039 -0.00315216 2.31580078 -0.00630432 3.50878906 -0.009552 C4.76916992 -0.00752777 6.02955078 -0.00550354 7.328125 -0.00341797 C8.61170898 -0.00437469 9.89529297 -0.00533142 11.21777344 -0.00631714 C13.93816324 -0.00779378 16.65852025 -0.00564066 19.37890625 -0.00097656 C22.87297169 0.00472073 26.36696033 0.00144154 29.86102295 -0.00454903 C33.18339653 -0.00902301 36.50574923 -0.00589432 39.828125 -0.00341797 C41.08850586 -0.0054422 42.34888672 -0.00746643 43.64746094 -0.009552 C44.80536133 -0.00639984 45.96326172 -0.00324768 47.15625 0 C48.18137695 0.00079559 49.20650391 0.00159119 50.26269531 0.00241089 C52.578125 0.12939453 52.578125 0.12939453 53.578125 1.12939453 C53.65039002 2.98226955 53.6619372 4.83773331 53.640625 6.69189453 C53.63160156 7.70380859 53.62257813 8.71572266 53.61328125 9.75830078 C53.60167969 10.54076172 53.59007812 11.32322266 53.578125 12.12939453 C52.918125 11.79939453 52.258125 11.46939453 51.578125 11.12939453 C51.578125 8.15939453 51.578125 5.18939453 51.578125 2.12939453 C33.098125 2.12939453 14.618125 2.12939453 -4.421875 2.12939453 C-4.41027344 6.77775391 -4.39867187 11.42611328 -4.38671875 16.21533203 C-4.38160328 19.17757303 -4.37678887 22.1398085 -4.37304688 25.10205078 C-4.36709203 29.79363144 -4.3600824 34.4851924 -4.34643555 39.17675781 C-4.33549118 42.96337727 -4.32957393 46.74997558 -4.32699776 50.53660965 C-4.32516417 51.97413083 -4.32158408 53.41165099 -4.31614494 54.84916306 C-4.2877856 62.66203049 -4.40665563 70.37038752 -5.421875 78.12939453 C-5.751875 78.12939453 -6.081875 78.12939453 -6.421875 78.12939453 C-6.4449991 68.1071169 -6.46279043 58.08484556 -6.47368717 48.06254673 C-6.47891585 43.40928267 -6.48601323 38.75603679 -6.49731445 34.1027832 C-6.50814386 29.61594907 -6.51415195 25.12913249 -6.51675224 20.6422863 C-6.5186064 18.9265916 -6.52222682 17.21089792 -6.52760506 15.49521065 C-6.53481621 13.1005454 -6.53586591 10.70595357 -6.53540039 8.3112793 C-6.53899567 7.59486771 -6.54259094 6.87845612 -6.54629517 6.14033508 C-6.53337208 0.03666155 -5.96916241 0.00463262 0 0 Z " fill="#53218B" transform="translate(455.421875,155.87060546875)"/>
<path d="M0 0 C2.9375 2.0625 2.9375 2.0625 5 5 C5.33 7.31 5.66 9.62 6 12 C-1.26 12 -8.52 12 -16 12 C-14.96418824 5.78512943 -14.49754628 4.83936878 -10 1 C-6.77121481 -0.6143926 -3.49096318 -0.5818272 0 0 Z " fill="#6D429B" transform="translate(512,317)"/>
<path d="M0 0 C9.89189376 -0.02312428 19.78378114 -0.04091552 29.67569637 -0.05181217 C34.2684264 -0.05704082 38.861138 -0.06413812 43.45385742 -0.07543945 C47.88233688 -0.086269 52.31079856 -0.09227698 56.73929024 -0.09487724 C58.43265628 -0.09673137 60.12602129 -0.10035175 61.81937981 -0.10573006 C64.18291232 -0.1129414 66.54637045 -0.1139909 68.90991211 -0.11352539 C69.61697296 -0.11712067 70.32403381 -0.12071594 71.05252075 -0.12442017 C75.88594784 -0.11405216 75.88594784 -0.11405216 77 1 C77.07244053 3.01964199 77.08377188 5.04167124 77.0625 7.0625 C77.05347656 8.16722656 77.04445313 9.27195313 77.03515625 10.41015625 C77.02355469 11.26480469 77.01195312 12.11945313 77 13 C75.68 12.67 74.36 12.34 73 12 C73.99 12 74.98 12 76 12 C75.505 10.515 75.505 10.515 75 9 C75 6.69 75 4.38 75 2 C50.25 2 25.5 2 0 2 C0 1.34 0 0.68 0 0 Z " fill="#54238B" transform="translate(524,156)"/>
<path d="M0 0 C1.79244141 0.01740234 1.79244141 0.01740234 3.62109375 0.03515625 C5.41740234 0.04869141 5.41740234 0.04869141 7.25 0.0625 C8.17683594 0.07410156 9.10367187 0.08570313 10.05859375 0.09765625 C10.05859375 0.75765625 10.05859375 1.41765625 10.05859375 2.09765625 C6.09859375 2.09765625 2.13859375 2.09765625 -1.94140625 2.09765625 C-1.94140625 12.98765625 -1.94140625 23.87765625 -1.94140625 35.09765625 C-2.60140625 35.09765625 -3.26140625 35.09765625 -3.94140625 35.09765625 C-3.96605815 30.27384823 -3.98424318 25.45007658 -3.99633789 20.6262207 C-4.00137799 18.98396161 -4.00821003 17.34170702 -4.0168457 15.69946289 C-4.02892551 13.34390146 -4.03463764 10.98839916 -4.0390625 8.6328125 C-4.04422379 7.89426529 -4.04938507 7.15571808 -4.05470276 6.39479065 C-4.05489875 4.62867537 -4.00335344 2.86268479 -3.94140625 1.09765625 C-2.94140625 0.09765625 -2.94140625 0.09765625 0 0 Z " fill="#4E1C88" transform="translate(409.94140625,155.90234375)"/>
<path d="M0 0 C3.81936528 1.55603771 6.26044438 3.95604931 9 7 C9 7.66 9 8.32 9 9 C14.61 9 20.22 9 26 9 C26 9.33 26 9.66 26 10 C21.68751391 10.02886537 17.37505238 10.04675255 13.0625 10.0625 C11.83080078 10.07087891 10.59910156 10.07925781 9.33007812 10.08789062 C8.16025391 10.09111328 6.99042969 10.09433594 5.78515625 10.09765625 C4.15912476 10.10551147 4.15912476 10.10551147 2.50024414 10.11352539 C0 10 0 10 -1 9 C-1.23728814 2.47457627 -1.23728814 2.47457627 0 0 Z " fill="#714092" transform="translate(464,250)"/>
<path d="M0 0 C0.721875 0.763125 1.44375 1.52625 2.1875 2.3125 C7.06721137 6.97533531 10.19663967 8.39662415 17 8.25 C18.794375 8.22679687 18.794375 8.22679687 20.625 8.203125 C23.52726599 8.02845158 26.17580091 7.66325888 29 7 C29.33 7.66 29.66 8.32 30 9 C23.18044052 11.47983981 15.59054157 12.4226279 8.5546875 10.2421875 C4.86667279 8.51385588 1.92105556 6.72204516 0 3 C0 2.01 0 1.02 0 0 Z " fill="#663897" transform="translate(383,336)"/>
<path d="M0 0 C0.99 0.33 1.98 0.66 3 1 C5.2012966 5.75016635 5.1765235 9.88081854 5 15 C3.68 14.67 2.36 14.34 1 14 C1.33 13.67 1.66 13.34 2 13 C1.93482868 10.99287607 1.93482868 10.99287607 1.625 8.6875 C1.53476562 7.90761719 1.44453125 7.12773437 1.3515625 6.32421875 C1.02512033 4.16607328 0.56860512 2.10576641 0 0 Z " fill="#805CA9" transform="translate(519,319)"/>
<path d="M0 0 C5.68731799 1.32263209 7.7532041 3.36172014 11 8 C11.8125 10.375 11.8125 10.375 12 12 C11.34 12 10.68 12 10 12 C9.649375 11.113125 9.29875 10.22625 8.9375 9.3125 C6.49611071 5.13851186 4.00268077 3.64327975 0 1 C0 0.67 0 0.34 0 0 Z " fill="#663696" transform="translate(445,312)"/>
<path d="M0 0 C1.79240663 0.11389875 3.58394835 0.24147687 5.375 0.375 C6.87160156 0.47941406 6.87160156 0.47941406 8.3984375 0.5859375 C11 1 11 1 13 3 C8.38 3 3.76 3 -1 3 C-0.67 2.01 -0.34 1.02 0 0 Z " fill="#6F479F" transform="translate(554,269)"/>
</svg>
