<?xml version="1.0" encoding="UTF-8"?>
<svg version="1.1" xmlns="http://www.w3.org/2000/svg" width="512" height="512">
<path d="M0 0 C6.79467812 3.99639167 13.63511288 7.91077882 20.484375 11.8125 C22.85440343 13.1636476 25.22416027 14.51527068 27.59375 15.8671875 C28.17894409 16.20104462 28.76413818 16.53490173 29.36706543 16.87887573 C36.56587087 20.98833292 43.7490354 25.12506804 50.91870117 29.28515625 C55.91322237 32.18093013 60.91570304 35.05733327 65.96209717 37.86164856 C67.75529615 38.85926801 69.5448596 39.86312333 71.33349609 40.86889648 C73.5729686 42.12565953 75.8190196 43.37080212 78.07275391 44.60180664 C86.84773398 49.55416776 92.81384251 54.41144486 95.96520138 64.13918972 C97.20832352 69.41873891 97.02451845 74.74867914 96.99755859 80.14648438 C97.00544403 82.10186882 97.00544403 82.10186882 97.01348877 84.09675598 C97.02708089 87.64845339 97.02189761 91.19988724 97.01235151 94.75158882 C97.00471258 98.48295891 97.01181221 102.21430766 97.01651001 105.94567871 C97.02195531 112.20975766 97.01480827 118.47373021 97.00048828 124.73779297 C96.98416407 131.96161791 96.98945345 139.18518876 97.0059675 146.40900755 C97.01961744 152.63095623 97.02148494 158.85282879 97.01365149 165.07478762 C97.00899419 168.78225648 97.00829622 172.48960623 97.01826096 176.19706726 C97.02860173 180.33270108 97.01423619 184.4679025 96.99755859 188.60351562 C97.00363129 189.81936844 97.00970398 191.03522125 97.01596069 192.28791809 C96.94824587 201.37536877 95.75652258 209.80578029 89.609375 216.875 C82.26083444 222.04371797 74.33962909 226.41994243 66.546875 230.875 C64.8304882 231.86071612 63.11410372 232.8464363 61.39785767 233.83239746 C59.63269925 234.84605824 57.86693168 235.85865132 56.10107422 236.87109375 C50.59742405 240.02792747 45.10406103 243.20259951 39.609375 246.375 C37.44013934 247.62636306 35.27086844 248.87766502 33.1015625 250.12890625 C28.79335849 252.61430902 24.48614711 255.10141977 20.1796875 257.58984375 C14.80309684 260.6963274 9.4231632 263.79696639 4.04199219 266.89550781 C0.99437171 268.6529834 -2.05045806 270.41515381 -5.09439087 272.17900085 C-7.65356958 273.66039918 -10.21543565 275.13710524 -12.77789307 276.61282349 C-14.00634667 277.3215622 -15.23371003 278.03219449 -16.4598999 278.74484253 C-18.16823909 279.73732392 -19.88091938 280.72232147 -21.59375 281.70703125 C-22.56989258 282.27139893 -23.54603516 282.8357666 -24.55175781 283.41723633 C-29.39570246 285.90461107 -33.76176793 287.1771572 -39.203125 287.25 C-40.15832031 287.27835937 -41.11351562 287.30671875 -42.09765625 287.3359375 C-50.7125763 286.13005308 -58.50326051 280.71973449 -65.953125 276.5 C-67.04520264 275.88495605 -68.13728027 275.26991211 -69.26245117 274.63623047 C-77.60506978 269.92268996 -85.89095239 265.11519819 -94.15649414 260.26806641 C-101.86974768 255.74782272 -109.62287576 251.30055403 -117.390625 246.875 C-126.43084742 241.72082844 -135.45753565 236.5443393 -144.453125 231.3125 C-145.39736328 230.76529297 -146.34160156 230.21808594 -147.31445312 229.65429688 C-171.24725454 215.69776671 -171.24725454 215.69776671 -174.390625 204.875 C-174.64789391 201.95701027 -174.64789391 201.95701027 -174.65805054 198.85440063 C-174.66658051 197.67131821 -174.67511047 196.48823578 -174.68389893 195.26930237 C-174.68299255 193.98498825 -174.68208618 192.70067413 -174.68115234 191.37744141 C-174.68714191 190.00038795 -174.69394845 188.62333785 -174.70150757 187.24629211 C-174.71913026 183.51687229 -174.72386134 179.78754432 -174.72513914 176.05808687 C-174.72656331 173.72524219 -174.7308379 171.39242067 -174.73613358 169.05958176 C-174.75462083 160.91307855 -174.76280574 152.76664068 -174.76123047 144.62011719 C-174.76002911 137.03900736 -174.78113356 129.45818225 -174.8127178 121.87714446 C-174.83890862 115.35719362 -174.84959661 108.83733563 -174.84831965 102.31733263 C-174.84781088 98.42814446 -174.85344681 94.53920953 -174.87467575 90.65007401 C-174.894106 86.99079234 -174.89415048 83.33200425 -174.87964249 79.6727047 C-174.8765702 77.69903027 -174.8931969 75.72535553 -174.91052246 73.75175476 C-174.8505276 65.25045431 -173.75393292 59.91096951 -168.203125 53.25 C-160.72784653 46.93754262 -152.06480046 42.296702 -143.578125 37.5 C-142.34582204 36.80000551 -141.11373005 36.09963952 -139.88183594 35.39892578 C-137.32685994 33.9460866 -134.77099664 32.49482871 -132.21435547 31.04492188 C-126.18369181 27.6239576 -120.16136831 24.18838633 -114.140625 20.75 C-113.55973114 20.41834839 -112.97883728 20.08669678 -112.38034058 19.74499512 C-98.10360302 11.59110906 -83.90788116 3.29938401 -69.73828125 -5.0390625 C-68.09811035 -6.00175049 -68.09811035 -6.00175049 -66.42480469 -6.98388672 C-64.3286582 -8.21431645 -62.23416446 -9.44756759 -60.14160156 -10.68408203 C-59.19897461 -11.23692871 -58.25634766 -11.78977539 -57.28515625 -12.359375 C-56.45862549 -12.84631836 -55.63209473 -13.33326172 -54.78051758 -13.83496094 C-34.73083288 -24.65757141 -17.07084785 -10.0537067 0 0 Z " fill="#953DAC" transform="translate(294.390625,122.125)"/>
<path d="M0 0 C4.83600446 4.83600446 4.24206964 11.92879859 4.28216553 18.33824158 C4.27968811 19.56128494 4.27721069 20.78432831 4.2746582 22.04443359 C4.2823246 23.99937996 4.2823246 23.99937996 4.29014587 25.99382019 C4.30348607 29.55384257 4.30412008 33.11375846 4.30158257 36.67380095 C4.30050937 39.65322103 4.30540519 42.63261988 4.310188 45.61203539 C4.32126617 52.64534459 4.32173026 59.67860037 4.31567383 66.71191406 C4.30963619 73.95045538 4.32194352 81.18880221 4.3432439 88.42731035 C4.36089879 94.65770175 4.3668551 100.88803147 4.36360615 107.11844695 C4.36179918 110.83266405 4.36437048 114.54674244 4.37832069 118.26093674 C4.39330917 122.40634399 4.38389504 126.55135914 4.37231445 130.69677734 C4.37995819 131.91577225 4.38760193 133.13476715 4.39547729 134.39070129 C4.33939758 143.49039064 3.15596388 151.92064154 -3 159 C-10.34854056 164.16871797 -18.26974591 168.54494243 -26.0625 173 C-27.7788868 173.98571612 -29.49527128 174.9714363 -31.21151733 175.95739746 C-32.97667575 176.97105824 -34.74244332 177.98365132 -36.50830078 178.99609375 C-42.01195095 182.15292747 -47.50531397 185.32759951 -53 188.5 C-55.16923566 189.75136306 -57.33850656 191.00266502 -59.5078125 192.25390625 C-63.81601651 194.73930902 -68.12322789 197.22641977 -72.4296875 199.71484375 C-77.80627816 202.8213274 -83.1862118 205.92196639 -88.56738281 209.02050781 C-91.61500329 210.7779834 -94.65983306 212.54015381 -97.70376587 214.30400085 C-100.26294458 215.78539918 -102.82481065 217.26210524 -105.38726807 218.73782349 C-106.61572167 219.4465622 -107.84308503 220.15719449 -109.0692749 220.86984253 C-110.77761409 221.86232392 -112.49029438 222.84732147 -114.203125 223.83203125 C-115.17926758 224.39639893 -116.15541016 224.9607666 -117.16113281 225.54223633 C-122.00507746 228.02961107 -126.37114293 229.3021572 -131.8125 229.375 C-132.76769531 229.40335938 -133.72289062 229.43171875 -134.70703125 229.4609375 C-143.3219513 228.25505308 -151.11263551 222.84473449 -158.5625 218.625 C-159.65457764 218.00995605 -160.74665527 217.39491211 -161.87182617 216.76123047 C-170.21444478 212.04768996 -178.50032739 207.24019819 -186.76586914 202.39306641 C-194.47912268 197.87282272 -202.23225076 193.42555403 -210 189 C-219.04022242 183.84582844 -228.06691065 178.6693393 -237.0625 173.4375 C-238.00673828 172.89029297 -238.95097656 172.34308594 -239.92382812 171.77929688 C-259.84354822 160.16301471 -259.84354822 160.16301471 -264 154 C-264 153.34 -264 152.68 -264 152 C-263.14341797 151.51926025 -263.14341797 151.51926025 -262.26953125 151.02880859 C-238.04953128 137.63690462 -238.04953128 137.63690462 -214.37939453 123.31884766 C-212 122 -212 122 -209 122 C-207.4921875 123.8359375 -207.4921875 123.8359375 -205.875 126.375 C-191.63191395 147.50125107 -170.96059603 160.38870491 -146.125 165.25 C-120.35288764 168.99928502 -97.0901145 161.75933042 -76.13671875 146.98046875 C-67.45304927 140.36024548 -58.88228603 131.35422955 -55 121 C-55.73524902 120.57702637 -56.47049805 120.15405273 -57.22802734 119.71826172 C-60.00546656 118.11987054 -62.78242565 116.52064907 -65.55908203 114.92089844 C-66.75160427 114.2340518 -67.94430697 113.54751835 -69.13720703 112.86132812 C-70.87061441 111.86414507 -72.60327791 110.8656693 -74.3359375 109.8671875 C-75.46225586 109.21975586 -76.58857422 108.57232422 -77.74902344 107.90527344 C-81.55741718 105.67331904 -85.29029528 103.33232765 -88.99853516 100.93798828 C-91.12774861 99.65984638 -91.12774861 99.65984638 -94 101 C-95.64477675 102.66047001 -95.64477675 102.66047001 -97.25 104.6875 C-104.44211497 113.0783008 -112.72713361 119.36361617 -124 121 C-138.10671807 122.02861486 -149.89957489 120.30806248 -161.07421875 110.80859375 C-169.57702037 102.82320399 -175.62697854 92.69850706 -176.37109375 80.80078125 C-176.70057269 68.58845533 -174.50300714 58.92333203 -167 49 C-166.46375 48.195625 -165.9275 47.39125 -165.375 46.5625 C-156.29569347 36.76640612 -144.47937889 32.21371211 -131.375 31.6875 C-119.87122183 31.81563614 -108.64023878 36.53628137 -100.37890625 44.5390625 C-94 51.44539782 -94 51.44539782 -94 54 C-86.18291263 49.75356141 -78.3928763 45.46078244 -70.625 41.125 C-69.59117187 40.55136719 -68.55734375 39.97773438 -67.4921875 39.38671875 C-60.99185429 35.75655754 -54.63338137 31.94816921 -48.30810547 28.02197266 C-43.27525732 24.94580672 -38.15215695 22.03383841 -33.01989746 19.12744141 C-29.97910193 17.40518381 -26.94264631 15.67531099 -23.90625 13.9453125 C-23.31173035 13.60671204 -22.71721069 13.26811157 -22.10467529 12.91925049 C-14.69035359 8.69104921 -7.33715355 4.36036554 0 0 Z " fill="#822D98" transform="translate(387,180)"/>
<path d="M0 0 C8.90280478 7.28673427 15.20063432 15.219064 21.48144531 24.7565918 C18.44169499 28.09601 15.35493609 30.13821682 11.39550781 32.2878418 C10.81610443 32.60563599 10.23670105 32.92343018 9.63973999 33.25085449 C7.7988024 34.25933125 5.95300999 35.25846178 4.10644531 36.2565918 C2.26785951 37.25615962 0.43042787 38.25775232 -1.40542603 39.2623291 C-3.07550238 40.17532617 -4.74884259 41.08234549 -6.42236328 41.98901367 C-9.59482017 43.74098939 -9.59482017 43.74098939 -12.72802734 45.97729492 C-15.51855469 47.7565918 -15.51855469 47.7565918 -18.51855469 47.7565918 C-20.06152344 45.9987793 -20.06152344 45.9987793 -21.70605469 43.6315918 C-28.57441229 34.45938259 -38.31076257 29.03614274 -49.51855469 26.7565918 C-62.33976519 25.69127256 -72.96412322 28.46621599 -83.51855469 35.7565918 C-84.40542969 36.3340918 -85.29230469 36.9115918 -86.20605469 37.5065918 C-94.65745637 45.72957722 -99.52084149 55.57838351 -99.98925781 67.33862305 C-100.16241159 81.26018699 -96.40465353 92.09353741 -86.93261719 102.4987793 C-77.07588997 111.77852736 -65.773486 114.16906734 -52.78808594 113.9675293 C-40.45562824 113.53122046 -30.61319365 107.42283439 -22.20996094 98.6862793 C-20.53677783 96.77738217 -19.0102791 94.80942355 -17.51855469 92.7565918 C-13.47829726 94.25319221 -9.85359999 96.17275729 -6.11621094 98.3112793 C-5.21593422 98.82550949 -5.21593422 98.82550949 -4.29747009 99.35012817 C-3.03344381 100.07309482 -1.7703204 100.7976421 -0.50805664 101.52368164 C1.4073617 102.62493192 3.3259792 103.72043308 5.24511719 104.81518555 C10.77072871 107.97981685 16.21405028 111.1768473 21.48144531 114.7565918 C20.10657291 118.72529564 18.27897042 121.52939166 15.60644531 124.7565918 C14.92839844 125.5815918 14.25035156 126.4065918 13.55175781 127.2565918 C12.86855469 128.0815918 12.18535156 128.9065918 11.48144531 129.7565918 C10.83820313 130.59577148 10.19496094 131.43495117 9.53222656 132.29956055 C-4.82795083 149.5044207 -27.721145 158.51457251 -49.51855469 160.7565918 C-73.39603945 162.50372483 -96.86811496 154.63377941 -115.03027344 138.99487305 C-115.85140625 138.25624023 -116.67253906 137.51760742 -117.51855469 136.7565918 C-118.22625 136.13139648 -118.93394531 135.50620117 -119.66308594 134.86206055 C-135.74646267 119.79380819 -145.29720748 97.47608643 -146.72167969 75.64331055 C-147.10014361 49.81314814 -138.807341 26.26708745 -120.96826172 7.21069336 C-88.65574278 -25.19977529 -36.00454175 -28.60788679 0 0 Z " fill="#FDFCFD" transform="translate(311.5185546875,186.243408203125)"/>
<path d="M0 0 C1.5078125 1.8359375 1.5078125 1.8359375 3.125 4.375 C17.36808605 25.50125107 38.03940397 38.38870491 62.875 43.25 C88.64711236 46.99928502 111.9098855 39.75933042 132.86328125 24.98046875 C140.65063388 19.04357615 146.23830843 11.81526746 152 4 C152.99965526 2.66640818 153.99947349 1.33293828 155 0 C159.53127699 1.65413607 163.61854126 3.89712044 167.8125 6.25 C168.96165894 6.89122803 168.96165894 6.89122803 170.1340332 7.54541016 C179.05449227 12.54976386 187.87612248 17.72503808 196.69921875 22.8984375 C200.78410376 25.29349819 204.88230505 27.66184035 209 30 C208.5231584 34.29157444 206.08138004 36.16747504 203 39 C201.04614138 40.34353765 199.04630948 41.62201884 197.01171875 42.83984375 C196.44692307 43.17966782 195.88212738 43.51949188 195.30021667 43.86961365 C189.19135017 47.52634998 183.00643169 51.05242808 176.8125 54.5625 C174.34182403 55.96765477 171.87211894 57.37451273 169.40234375 58.78125 C168.78224426 59.13417618 168.16214478 59.48710236 167.52325439 59.85072327 C161.29361892 63.39784069 155.08252085 66.9768362 148.875 70.5625 C147.81490723 71.17464355 146.75481445 71.78678711 145.66259766 72.41748047 C142.44148968 74.27790159 139.22072715 76.13891968 136 78 C128.36967522 82.4079342 120.73697829 86.81169916 113.10107422 91.20996094 C110.03395713 92.98039886 106.97173282 94.75906456 103.91015625 96.5390625 C102.02352926 97.63036699 100.1368151 98.72152078 98.25 99.8125 C97.39881592 100.31031982 96.54763184 100.80813965 95.6706543 101.32104492 C89.59860451 104.82028628 84.32702026 107.27942409 77.1875 107.375 C76.23230469 107.40335937 75.27710938 107.43171875 74.29296875 107.4609375 C65.6780487 106.25505308 57.88736449 100.84473449 50.4375 96.625 C49.34542236 96.00995605 48.25334473 95.39491211 47.12817383 94.76123047 C38.78555522 90.04768996 30.49967261 85.24019819 22.23413086 80.39306641 C14.52087732 75.87282272 6.76774924 71.42555403 -1 67 C-10.04022242 61.84582844 -19.06691065 56.6693393 -28.0625 51.4375 C-29.00673828 50.89029297 -29.95097656 50.34308594 -30.92382812 49.77929688 C-50.84354822 38.16301471 -50.84354822 38.16301471 -55 32 C-55 31.34 -55 30.68 -55 30 C-54.42894531 29.67950684 -53.85789062 29.35901367 -53.26953125 29.02880859 C-29.04953128 15.63690462 -29.04953128 15.63690462 -5.37939453 1.31884766 C-3 0 -3 0 0 0 Z " fill="#68217A" transform="translate(178,302)"/>
<path d="M0 0 C8.36728625 8.10185874 8.36728625 8.10185874 10 13 C9.51982422 13.25990723 9.03964844 13.51981445 8.54492188 13.78759766 C-2.57061537 19.81853473 -13.56171462 26.03192987 -24.47021484 32.42944336 C-32.0430025 36.86739001 -39.63989999 41.2609209 -47.25854492 45.61953735 C-48.49051312 46.32445441 -49.72212881 47.02998794 -50.95336914 47.73617554 C-52.67885722 48.72559044 -54.40581033 49.71244904 -56.1328125 50.69921875 C-57.12168457 51.26471436 -58.11055664 51.83020996 -59.12939453 52.4128418 C-62.04831157 54.02671147 -65.00668674 55.5294301 -68 57 C-68.64910154 55.41800369 -69.29414694 53.83434276 -69.9375 52.25 C-70.29714844 51.36828125 -70.65679687 50.4865625 -71.02734375 49.578125 C-74.63218326 40.0231287 -74.61809065 27.69478575 -70.75 18.25 C-68.79368019 14.25469898 -66.68170366 10.54676936 -64 7 C-63.195625 5.7934375 -63.195625 5.7934375 -62.375 4.5625 C-45.75370112 -13.37100669 -19.13280716 -14.73911692 0 0 Z " fill="#953DAC" transform="translate(284,222)"/>
<path d="M0 0 C2.92504883 1.41113281 2.92504883 1.41113281 5.95703125 3.203125 C7.62668945 4.17958984 7.62668945 4.17958984 9.33007812 5.17578125 C10.49107791 5.86686421 11.65188421 6.55827234 12.8125 7.25 C15.08950792 8.58911287 17.36684551 9.92766535 19.64453125 11.265625 C20.72428223 11.90306641 21.8040332 12.54050781 22.91650391 13.19726562 C26.90846829 15.53112667 30.94100026 17.78516218 35 20 C32.20388567 28.35859709 25.16445316 34.14203125 17.53808594 38.14697266 C6.74734076 43.485402 -4.89060985 44.91567161 -16.6875 42.12890625 C-26.34026362 38.65709858 -35.30338336 32.7280305 -41 24 C-41.35829829 22.67315742 -41.69480662 21.34005443 -42 20 C-41.19369141 19.54149658 -40.38738281 19.08299316 -39.55664062 18.6105957 C-36.5291808 16.88797802 -33.50259414 15.16384507 -30.4765625 13.4387207 C-29.1735171 12.69626166 -27.87013914 11.95438593 -26.56640625 11.21313477 C-25.30008198 10.4930585 -24.03420719 9.77219119 -22.76879883 9.05050659 C-21.53134077 8.34477513 -20.29290109 7.64076199 -19.0534668 6.93850708 C-15.75670069 5.05804993 -12.59371973 3.06898958 -9.46875 0.91796875 C-5.38463721 -1.34025127 -4.39520648 -1.1422436 0 0 Z " fill="#68217A" transform="translate(259,258)"/>
<path d="M0 0 C2.64 0 5.28 0 8 0 C7.34 3.96 6.68 7.92 6 12 C9.96 12 13.92 12 18 12 C18.33 8.04 18.66 4.08 19 0 C21.64 0 24.28 0 27 0 C26.67 3.96 26.34 7.92 26 12 C27.98 12 29.96 12 32 12 C32 14.31 32 16.62 32 19 C29.36 19 26.72 19 24 19 C23.34 23.29 22.68 27.58 22 32 C24.31 32 26.62 32 29 32 C29 34.31 29 36.62 29 39 C26.36 39.33 23.72 39.66 21 40 C20.34 43.63 19.68 47.26 19 51 C16.36 51 13.72 51 11 51 C11.66 47.04 12.32 43.08 13 39 C9.04 39 5.08 39 1 39 C0.855625 40.60875 0.71125 42.2175 0.5625 43.875 C0.125 48.75 0.125 48.75 -1 51 C-3.31 51 -5.62 51 -8 51 C-8.14285714 42.42857143 -8.14285714 42.42857143 -7 39 C-8.98 39 -10.96 39 -13 39 C-13 36.69 -13 34.38 -13 32 C-10.36 32 -7.72 32 -5 32 C-4.93941406 31.22914063 -4.87882812 30.45828125 -4.81640625 29.6640625 C-4.73261719 28.66117188 -4.64882813 27.65828125 -4.5625 26.625 C-4.48128906 25.62726563 -4.40007812 24.62953125 -4.31640625 23.6015625 C-4 21 -4 21 -3 19 C-5.31 19 -7.62 19 -10 19 C-10 16.36 -10 13.72 -10 11 C-7.36 11 -4.72 11 -2 11 C-1.93941406 10.37351563 -1.87882812 9.74703125 -1.81640625 9.1015625 C-1.73261719 8.28429687 -1.64882813 7.46703125 -1.5625 6.625 C-1.48128906 5.81289062 -1.40007812 5.00078125 -1.31640625 4.1640625 C-1 2 -1 2 0 0 Z " fill="#FBF9FC" transform="translate(335,227)"/>
<path d="M0 0 C3.96 0 7.92 0 12 0 C11.67 4.29 11.34 8.58 11 13 C7.04 13 3.08 13 -1 13 C-0.67 8.71 -0.34 4.42 0 0 Z " fill="#84309A" transform="translate(339,246)"/>
</svg>
